<svg width="16" height="14" viewBox="0 0 16 14" fill="none" xmlns="http://www.w3.org/2000/svg">
<path fill-rule="evenodd" clip-rule="evenodd" d="M14 2H12C12 2 11 0 10 0H6C4.99414 0 4 2 4 2H2C0 2 0 4 0 4V12C0 12 0 14 2 14H14C16 14 16 12 16 12V4C16 4 16 2 14 2ZM10.8259 10.8258C10.0431 11.6085 9.10126 12 7.99998 12C6.89871 12 5.9569 11.6085 5.17411 10.8258C4.39132 10.0431 4 9.10105 4 8.00003C4 6.89867 4.39144 5.95689 5.17411 5.1741C5.9568 4.39132 6.89874 4 7.99998 4C9.10123 4 10.0431 4.39141 10.8259 5.1741C11.6086 5.9568 12 6.89867 12 8.00003C12 9.10105 11.6087 10.043 10.8259 10.8258ZM6.58681 6.58687C6.97801 6.19561 7.44907 6 8 6C8.55086 6 9.02199 6.19563 9.41317 6.58687C9.80437 6.9781 10 7.44909 10 8.00013C10 8.551 9.80437 9.02204 9.41317 9.41325C9.02196 9.80439 8.55086 10 8 10C7.44904 10 6.97801 9.80439 6.58681 9.41325C6.1956 9.02204 6 8.55098 6 8.00013C6 7.44907 6.1956 6.97808 6.58681 6.58687Z" fill="#A3A9B1"/>
</svg>
