<svg width="26" height="36" viewBox="0 0 26 36" fill="none" xmlns="http://www.w3.org/2000/svg">
<path fill-rule="evenodd" clip-rule="evenodd" d="M4 8H22C25 8 25 11 25 11V32C25 32 25 35 22 35H3.73244C3.38663 35.5978 2.74028 36 2 36C0.89543 36 0 35.1046 0 34C0 32.8954 0.89543 32 2 32C2.74028 32 3.38663 32.4022 3.73244 33H21C23 33.0288 23 31 23 31V12C23 12 23 10 21 10H5C3 10 3 12 3 12V24.2676C3.5978 24.6134 4 25.2597 4 26C4 27.1046 3.10457 28 2 28C0.89543 28 0 27.1046 0 26C0 25.2597 0.402199 24.6134 1 24.2676V11C1 11 1 8 4 8ZM26 5C26 6 25 6 25 6H1C1 6 0 6 0 5C0 4 1 4 1 4H8V2C8 2 8 0 10 0H16C18 0 18 2 18 2V4H25C25 4 26 4 26 5ZM16 4V2H10V4H16ZM9 14C9 14 9 13 10 13C11 13 11 14 11 14V29C11 29 11 30 10 30C9 30 9 29 9 29V14ZM15 14C15 14 15 13 16 13C17 13 17 14 17 14V29C17 29 17 30 16 30C15 30 15 29 15 29V14Z" fill="#00D4FF"/>
</svg>
